<svg width="501" height="67" viewBox="0 0 501 67" fill="none" xmlns="http://www.w3.org/2000/svg">
    <path
        d="M32.7531 40.3808C28.6076 40.3808 25.6458 37.3083 25.6458 33.2736C25.6458 29.2389 28.6076 26.1663 32.7531 26.1663C36.9087 26.1663 39.8654 29.2389 39.8654 33.2736C39.8654 37.3083 36.9087 40.3808 32.7531 40.3808ZM34.6923 17.7494C31.0908 17.7494 28.4162 18.7467 26.3963 20.4543C26.0085 20.7867 25.4241 20.4996 25.4241 20.0009V19.0842C25.4241 18.7518 25.1572 18.4898 24.8298 18.4898H17.1986C16.8763 18.4898 16.6042 18.7518 16.6042 19.0842V58.8417C16.6042 59.1691 16.8763 59.4361 17.1986 59.4361H25.5098C25.8372 59.4361 26.0991 59.1691 26.0991 58.8417V47.065C26.0991 46.5815 26.6633 46.2944 27.0512 46.5815C29.0106 48.0523 31.4737 48.8029 34.6923 48.8029C41.7996 48.8029 49.2494 42.9397 49.2494 33.2736C49.2494 23.6679 41.7996 17.7494 34.6923 17.7494Z"
        fill="#365294"/>
    <path
        d="M63.7262 7.11609H55.4201C55.0877 7.11609 54.8207 7.38302 54.8207 7.71043V47.4679C54.8207 47.7953 55.0877 48.0623 55.4201 48.0623H63.7262C64.0536 48.0623 64.3206 47.7953 64.3206 47.4679V7.71043C64.3206 7.38302 64.0536 7.11609 63.7262 7.11609Z"
        fill="#365294"/>
    <path
        d="M86.4382 40.3808C82.2927 40.3808 79.3309 37.3083 79.3309 33.2736C79.3309 29.2389 82.2927 26.1663 86.4382 26.1663C90.5938 26.1663 93.5505 29.2389 93.5505 33.2736C93.5505 37.3083 90.5938 40.3808 86.4382 40.3808ZM101.942 18.4898H94.3716C94.0442 18.4898 93.7772 18.7518 93.7772 19.0842V20.0009C93.7772 20.4996 93.1879 20.7867 92.8051 20.4543C90.7852 18.7467 88.1005 17.7494 84.509 17.7494C77.3413 17.7494 69.9469 23.6679 69.9469 33.2736C69.9469 42.9397 77.3413 48.8029 84.509 48.8029C88.1005 48.8029 90.7852 47.8458 92.8051 46.113C93.1879 45.7856 93.7772 46.0677 93.7772 46.5664V47.463C93.7772 47.7954 94.0442 48.0574 94.3716 48.0574H101.942C102.265 48.0574 102.537 47.7954 102.537 47.463V19.0842C102.537 18.7518 102.265 18.4898 101.942 18.4898Z"
        fill="#365294"/>
    <path
        d="M139.151 18.4901H130.789C130.553 18.4901 130.341 18.6311 130.245 18.8477L123.717 33.9085C123.511 34.382 122.836 34.3871 122.629 33.9136L115.94 18.8427C115.845 18.6261 115.633 18.4901 115.396 18.4901H106.823C106.39 18.4901 106.103 18.9435 106.289 19.3364L118.398 45.1462C118.474 45.3024 118.474 45.4787 118.403 45.6348L112.686 58.6002C112.51 58.9931 112.797 59.4364 113.23 59.4364H121.426C121.662 59.4364 121.874 59.2953 121.97 59.0837L139.695 19.3263C139.871 18.9334 139.584 18.4901 139.151 18.4901Z"
        fill="#365294"/>
    <path
        d="M182.832 25.8705C185.558 25.8705 187.586 27.0375 188.925 29.2853C189.035 29.4654 189.231 29.575 189.442 29.575H198.105C198.504 29.575 198.794 29.1991 198.692 28.8154C196.53 21.046 189.685 17.2944 182.832 17.2944C174.374 17.2944 166.213 23.1998 166.213 33.1073C166.213 43.0696 174.374 48.92 182.832 48.92C189.685 48.92 196.53 45.2233 198.684 37.4618C198.794 37.0781 198.504 36.7021 198.105 36.7021H189.442C189.231 36.7021 189.035 36.8039 188.925 36.9841C187.586 39.1849 185.558 40.4067 182.832 40.4067C178.72 40.4067 175.823 37.2817 175.823 33.1073C175.823 28.9407 178.72 25.8705 182.832 25.8705Z"
        fill="#7758B3"/>
    <path
        d="M223.824 17.7015H222.054C218.827 17.7015 216.086 18.5317 213.784 20.5446C213.392 20.8813 212.781 20.5994 212.781 20.0825V18.6493C212.781 18.3203 212.515 18.0462 212.178 18.0462H204.409C204.08 18.0462 203.806 18.3203 203.806 18.6493V47.5649C203.806 47.9017 204.08 48.168 204.409 48.168H212.875C213.212 48.168 213.478 47.9017 213.478 47.5649V33.3969C213.478 29.1676 216.721 26.2698 220.55 26.2698H223.824C224.153 26.2698 224.427 26.0035 224.427 25.6667V18.3046C224.427 17.9678 224.153 17.7015 223.824 17.7015Z"
        fill="#7758B3"/>
    <path
        d="M248.104 29.9196H236.599C236.176 29.9196 235.887 29.5203 236.02 29.1287C237.038 26.1603 239.286 24.5861 242.27 24.5861C245.857 24.5861 247.909 26.5597 248.692 29.1521C248.794 29.528 248.504 29.9196 248.104 29.9196ZM242.27 17.2944C233.694 17.2944 226.05 23.4348 226.05 33.1073C226.05 42.7876 233.694 48.9279 242.27 48.9279C249.812 48.9279 254.856 44.8944 257.166 39.5216C257.346 39.1222 257.049 38.6758 256.61 38.6758H248.621C248.426 38.6758 248.238 38.762 248.136 38.9187C246.859 40.72 245.105 41.6833 242.387 41.6833C239.168 41.6833 236.842 39.8898 235.91 36.7178C235.808 36.3419 236.098 35.9503 236.497 35.9503H257.566C257.871 35.9503 258.122 35.7231 258.176 35.4177C259.68 24.7505 251.504 17.2944 242.27 17.2944Z"
        fill="#7758B3"/>
    <path
        d="M278.54 40.3519C274.311 40.3519 271.288 37.2191 271.288 33.1073C271.288 28.9955 274.311 25.8705 278.54 25.8705C282.769 25.8705 285.777 28.9955 285.777 33.1073C285.777 37.2191 282.769 40.3519 278.54 40.3519ZM294.322 18.0464H286.615C286.286 18.0464 286.012 18.3205 286.012 18.6494V19.5814C286.012 20.0983 285.417 20.3802 285.025 20.0435C282.965 18.3048 280.224 17.2944 276.566 17.2944C269.267 17.2944 261.74 23.3173 261.74 33.1073C261.74 42.9599 269.267 48.9279 276.566 48.9279C280.224 48.9279 282.965 47.9489 285.009 46.1867C285.401 45.8499 286.012 46.1319 286.012 46.6488V47.5573C286.012 47.9019 286.286 48.1682 286.615 48.1682H294.322C294.666 48.1682 294.925 47.9019 294.925 47.5573V18.6494C294.925 18.3205 294.666 18.0464 294.322 18.0464Z"
        fill="#7758B3"/>
    <path
        d="M320.511 18.0463H314.825C314.488 18.0463 314.222 17.7722 314.222 17.4433V10.6607C314.222 10.3239 313.948 10.0498 313.611 10.0498H305.153C304.816 10.0498 304.542 10.3239 304.542 10.6607V17.4433C304.542 17.7722 304.276 18.0463 303.939 18.0463H300.226C299.889 18.0463 299.623 18.3205 299.623 18.6494V25.9566C299.623 26.2934 299.889 26.5597 300.226 26.5597H303.939C304.276 26.5597 304.542 26.8339 304.542 27.1706V36.8196C304.542 43.8292 308.544 48.1682 315.789 48.1682H320.511C320.84 48.1682 321.114 47.9019 321.114 47.5651V40.203C321.114 39.8662 320.84 39.6 320.511 39.6H318.741C315.843 39.6 314.222 37.8612 314.222 35.0182V27.1706C314.222 26.8339 314.488 26.5597 314.825 26.5597H320.511C320.84 26.5597 321.114 26.2934 321.114 25.9566V18.6494C321.114 18.3205 320.84 18.0463 320.511 18.0463Z"
        fill="#7758B3"/>
    <path
        d="M346.638 29.9196H335.133C334.718 29.9196 334.421 29.5203 334.561 29.1287C335.572 26.1603 337.82 24.5861 340.811 24.5861C344.398 24.5861 346.443 26.5597 347.226 29.1521C347.335 29.528 347.046 29.9196 346.638 29.9196ZM340.811 17.2944C332.235 17.2944 324.591 23.4348 324.591 33.1073C324.591 42.7876 332.235 48.9279 340.811 48.9279C348.354 48.9279 353.39 44.8944 355.708 39.5216C355.88 39.1222 355.59 38.6758 355.152 38.6758H347.163C346.967 38.6758 346.779 38.762 346.67 38.9187C345.401 40.72 343.647 41.6833 340.929 41.6833C337.702 41.6833 335.384 39.8898 334.452 36.7178C334.342 36.3419 334.64 35.9503 335.039 35.9503H356.107C356.405 35.9503 356.663 35.7231 356.71 35.4177C358.214 24.7505 350.037 17.2944 340.811 17.2944Z"
        fill="#7758B3"/>
    <path
        d="M405.761 29.5771H394.033C393.613 29.5771 393.31 29.1666 393.447 28.7659C394.483 25.7557 396.77 24.1431 399.809 24.1431C403.464 24.1431 405.566 26.1564 406.338 28.7855C406.465 29.1764 406.162 29.5771 405.761 29.5771ZM399.809 16.725C391.081 16.725 383.292 22.9801 383.292 32.8219C383.292 42.6735 391.081 48.9187 399.809 48.9187C407.501 48.9187 412.622 44.8138 414.987 39.3407C415.163 38.94 414.86 38.4904 414.42 38.4904H406.279C406.084 38.4904 405.888 38.5784 405.781 38.7445C404.491 40.5722 402.692 41.5495 399.926 41.5495C396.652 41.5495 394.287 39.7218 393.349 36.5064C393.232 36.1057 393.535 35.7148 393.935 35.7148H415.388C415.701 35.7148 415.955 35.4802 416.004 35.1772C417.528 24.3189 409.221 16.725 399.809 16.725Z"
        fill="#EB6FB7"/>
    <path
        d="M437.064 40.0873C432.754 40.0873 429.685 36.9012 429.685 32.7084C429.685 28.5156 432.754 25.3392 437.064 25.3392C441.375 25.3392 444.434 28.5156 444.434 32.7084C444.434 36.9012 441.375 40.0873 437.064 40.0873ZM453.132 17.364H445.284C444.942 17.364 444.678 17.6475 444.678 17.9896V18.9376C444.678 19.4653 444.072 19.7487 443.662 19.4164C441.57 17.6377 438.794 16.6115 435.061 16.6115C427.623 16.6115 419.961 22.7395 419.961 32.7084C419.961 42.7359 427.623 48.815 435.061 48.815C438.794 48.815 441.57 47.8181 443.662 46.0296C444.052 45.6875 444.678 45.9807 444.678 46.4987V47.4369C444.678 47.779 444.942 48.0429 445.284 48.0429H453.132C453.474 48.0429 453.757 47.779 453.757 47.4369V17.9896C453.757 17.6475 453.474 17.364 453.132 17.364Z"
        fill="#EB6FB7"/>
    <path
        d="M473.697 26.2438H479.482C479.825 26.2438 480.098 25.9701 480.098 25.6281V18.1905C480.098 17.8484 479.825 17.5748 479.482 17.5748H473.697C473.354 17.5748 473.081 17.2913 473.081 16.959V10.0493C473.081 9.70721 472.807 9.43355 472.465 9.43355H463.845C463.503 9.43355 463.229 9.70721 463.229 10.0493V16.959C463.229 17.2913 462.956 17.5748 462.613 17.5748H458.831C458.489 17.5748 458.215 17.8484 458.215 18.1905V25.6281C458.215 25.9701 458.489 26.2438 458.831 26.2438H462.613C462.956 26.2438 463.229 26.5175 463.229 26.8595V36.6819C463.229 43.8263 467.295 48.2438 474.674 48.2438H479.482C479.825 48.2438 480.098 47.9701 480.098 47.6281V40.1318C480.098 39.7897 479.825 39.5162 479.482 39.5162H477.684C474.733 39.5162 473.081 37.7472 473.081 34.8543V26.8595C473.081 26.5175 473.354 26.2438 473.697 26.2438Z"
        fill="#EB6FB7"/>
    <circle cx="153.012" cy="45.2518" r="4.40026" fill="#5DADE2"/>
    <circle cx="370.092" cy="43.7847" r="4.40026" fill="#5DADE2"/>
</svg>
